REM DIRINDEX 1\2,1\3,1\4,1\5
REM DIRNAME cjc044,folder01,folder02,folder03,folder04
TITLE ""
FILE "1800_120.mp3" MP3
  TRACK 01 AUDIO
    TITLE "2:cjc044_3477"
    INDEX 01 00:00:00
  TRACK 02 AUDIO
    TITLE "0:"
    INDEX 01 00:00:72
  TRACK 03 AUDIO
    TITLE "3:cjc044_3478"
    INDEX 01 00:01:54
  TRACK 04 AUDIO
    TITLE "0:"
    INDEX 01 00:03:55
  TRACK 05 AUDIO
    TITLE "4:cjc044_3479"
    INDEX 01 00:04:35
  TRACK 06 AUDIO
    TITLE "0:"
    INDEX 01 00:05:40
  TRACK 07 AUDIO
    TITLE "5:cjc044_3480"
    INDEX 01 00:06:24
  TRACK 08 AUDIO
    TITLE "0:"
    INDEX 01 00:10:35
  TRACK 09 AUDIO
    TITLE "2:cjc044_3481"
    INDEX 01 00:12:22
  TRACK 10 AUDIO
    TITLE "0:"
    INDEX 01 00:13:28
  TRACK 11 AUDIO
    TITLE "3:cjc044_3482"
    INDEX 01 00:14:15
  TRACK 12 AUDIO
    TITLE "0:"
    INDEX 01 00:15:36
  TRACK 13 AUDIO
    TITLE "4:cjc044_3483"
    INDEX 01 00:16:24
  TRACK 14 AUDIO
    TITLE "0:"
    INDEX 01 00:17:31
  TRACK 15 AUDIO
    TITLE "5:cjc044_3484"
    INDEX 01 00:18:17
  TRACK 16 AUDIO
    TITLE "0:"
    INDEX 01 00:21:19
  TRACK 17 AUDIO
    TITLE "2:cjc044_3485"
    INDEX 01 00:23:04
  TRACK 18 AUDIO
    TITLE "0:"
    INDEX 01 00:24:27
  TRACK 19 AUDIO
    TITLE "3:cjc044_3486"
    INDEX 01 00:25:09
  TRACK 20 AUDIO
    TITLE "0:"
    INDEX 01 00:26:15
  TRACK 21 AUDIO
    TITLE "4:cjc044_3487"
    INDEX 01 00:26:73
  TRACK 22 AUDIO
    TITLE "0:"
    INDEX 01 00:28:31
  TRACK 23 AUDIO
    TITLE "5:cjc044_3488"
    INDEX 01 00:29:15
  TRACK 24 AUDIO
    TITLE "0:"
    INDEX 01 00:32:25
  TRACK 25 AUDIO
    TITLE "2:cjc044_3489"
    INDEX 01 00:34:12
  TRACK 26 AUDIO
    TITLE "0:"
    INDEX 01 00:35:10
  TRACK 27 AUDIO
    TITLE "3:cjc044_3490"
    INDEX 01 00:36:01
  TRACK 28 AUDIO
    TITLE "0:"
    INDEX 01 00:38:61
  TRACK 29 AUDIO
    TITLE "4:cjc044_3491"
    INDEX 01 00:39:47
  TRACK 30 AUDIO
    TITLE "0:"
    INDEX 01 00:40:46
  TRACK 31 AUDIO
    TITLE "5:cjc044_3492"
    INDEX 01 00:41:40
  TRACK 32 AUDIO
    TITLE "0:"
    INDEX 01 00:45:57
  TRACK 33 AUDIO
    TITLE "2:cjc044_3493"
    INDEX 01 00:47:46
  TRACK 34 AUDIO
    TITLE "0:"
    INDEX 01 00:48:67
  TRACK 35 AUDIO
    TITLE "3:cjc044_3494"
    INDEX 01 00:49:55
  TRACK 36 AUDIO
    TITLE "0:"
    INDEX 01 00:50:44
  TRACK 37 AUDIO
    TITLE "4:cjc044_3495"
    INDEX 01 00:51:32
  TRACK 38 AUDIO
    TITLE "0:"
    INDEX 01 00:52:53
  TRACK 39 AUDIO
    TITLE "5:cjc044_3496"
    INDEX 01 00:53:31
  TRACK 40 AUDIO
    TITLE "0:"
    INDEX 01 00:56:43
  TRACK 41 AUDIO
    TITLE "2:cjc044_3497"
    INDEX 01 00:58:32
  TRACK 42 AUDIO
    TITLE "0:"
    INDEX 01 00:59:41
  TRACK 43 AUDIO
    TITLE "3:cjc044_3498"
    INDEX 01 01:00:23
  TRACK 44 AUDIO
    TITLE "0:"
    INDEX 01 01:01:52
  TRACK 45 AUDIO
    TITLE "4:cjc044_3499"
    INDEX 01 01:02:40
  TRACK 46 AUDIO
    TITLE "0:"
    INDEX 01 01:03:49
  TRACK 47 AUDIO
    TITLE "5:cjc044_3500"
    INDEX 01 01:04:29
  TRACK 48 AUDIO
    TITLE "0:"
    INDEX 01 01:07:43
  TRACK 49 AUDIO
    TITLE "2:cjc044_3501"
    INDEX 01 01:09:22
  TRACK 50 AUDIO
    TITLE "0:"
    INDEX 01 01:10:18
  TRACK 51 AUDIO
    TITLE "3:cjc044_3502"
    INDEX 01 01:11:05
  TRACK 52 AUDIO
    TITLE "0:"
    INDEX 01 01:12:07
  TRACK 53 AUDIO
    TITLE "4:cjc044_3503"
    INDEX 01 01:12:62
  TRACK 54 AUDIO
    TITLE "0:"
    INDEX 01 01:13:59
  TRACK 55 AUDIO
    TITLE "5:cjc044_3504"
    INDEX 01 01:14:45
  TRACK 56 AUDIO
    TITLE "0:"
    INDEX 01 01:17:55
  TRACK 57 AUDIO
    TITLE "2:cjc044_3505"
    INDEX 01 01:19:38
  TRACK 58 AUDIO
    TITLE "0:"
    INDEX 01 01:20:63
  TRACK 59 AUDIO
    TITLE "3:cjc044_3506"
    INDEX 01 01:21:45
  TRACK 60 AUDIO
    TITLE "0:"
    INDEX 01 01:23:46
  TRACK 61 AUDIO
    TITLE "4:cjc044_3507"
    INDEX 01 01:24:30
  TRACK 62 AUDIO
    TITLE "0:"
    INDEX 01 01:25:51
  TRACK 63 AUDIO
    TITLE "5:cjc044_3508"
    INDEX 01 01:26:36
  TRACK 64 AUDIO
    TITLE "0:"
    INDEX 01 01:29:15
